<svg width="24" height="24" viewBox="0 0 24 24" fill="none" xmlns="http://www.w3.org/2000/svg">
<path d="M23.7477 0.163565C23.5878 0.0299715 23.3769 -0.0258566 23.1718 0.0112215L7.60931 2.82372C7.27467 2.88424 7.03124 3.17556 7.03124 3.51564V16.6397C6.28429 15.9703 5.29832 15.5625 4.21875 15.5625C1.89253 15.5625 0 17.455 0 19.7813C0 22.1075 1.89253 24 4.21875 24C6.54496 24 8.43749 22.1075 8.43749 19.7813V9.25932L22.5937 6.70098V14.5304C21.8468 13.8609 20.8608 13.4531 19.7812 13.4531C17.455 13.4531 15.5625 15.3457 15.5625 17.6719C15.5625 19.9981 17.455 21.8906 19.7812 21.8906C22.1075 21.8906 24 19.9981 24 17.6719V0.703143C24 0.494784 23.9076 0.297159 23.7477 0.163565ZM4.21875 22.5938C2.66794 22.5938 1.40625 21.3321 1.40625 19.7813C1.40625 18.2304 2.66794 16.9688 4.21875 16.9688C5.76956 16.9688 7.03124 18.2304 7.03124 19.7813C7.03124 21.3321 5.76956 22.5938 4.21875 22.5938ZM8.43749 7.83034V4.10312L22.5937 1.54474V5.27195L8.43749 7.83034ZM19.7812 20.4844C18.2304 20.4844 16.9687 19.2227 16.9687 17.6719C16.9687 16.1211 18.2304 14.8594 19.7812 14.8594C21.332 14.8594 22.5937 16.1211 22.5937 17.6719C22.5937 19.2227 21.332 20.4844 19.7812 20.4844Z" fill="black"/>
</svg>
