<svg width="28" height="34" viewBox="0 0 28 34" fill="none" xmlns="http://www.w3.org/2000/svg">
<path d="M3.55328 24.1566C3.33666 24.1566 3.13261 24.258 3.00173 24.4305C2.50049 25.0915 0 28.4762 0 30.2017C0 32.1609 1.59399 33.755 3.55328 33.755C5.51256 33.755 7.10655 32.1609 7.10655 30.2017C7.10655 28.4762 4.60606 25.0915 4.10482 24.4305C3.97395 24.258 3.76989 24.1566 3.55328 24.1566Z" fill="black"/>
<path fill-rule="evenodd" clip-rule="evenodd" d="M26.9587 1.04134C27.6302 1.71286 28 2.60561 28 3.55521C27.9999 4.50482 27.6302 5.39747 26.9585 6.06899L24.3807 8.64683L25.0321 9.29814C25.4071 9.67312 25.5171 10.2558 25.3417 10.9386C25.215 11.4325 24.9463 11.9291 24.6405 12.2349C24.3007 12.5748 23.8488 12.762 23.368 12.762C22.8872 12.762 22.4353 12.5748 22.0953 12.2348L21.1165 11.2559L10.1198 22.2525C9.51711 22.855 8.72512 23.1566 7.93351 23.1566C7.14162 23.1566 6.35001 22.8552 5.74723 22.2525C5.16318 21.6684 4.84163 20.892 4.84163 20.0661C4.84163 19.2403 5.16318 18.4638 5.74723 17.8799L16.7439 6.88339L15.765 5.90462C15.4251 5.56461 15.2379 5.11266 15.2379 4.6319C15.2379 4.15124 15.4251 3.69928 15.765 3.35937C16.2182 2.90612 17.0173 2.57709 17.6649 2.57709C18.1989 2.57709 18.5234 2.78946 18.7017 2.96768L19.3531 3.61899L21.931 1.04125C22.6024 0.369818 23.4952 0 24.4448 0C25.3944 0 26.2872 0.369817 26.9587 1.04134ZM9.57099 16.014C11.1301 16.3174 12.7293 16.3515 14.2992 16.1151L20.1375 10.2769L17.7228 7.86234L9.57099 16.014ZM23.3681 11.3775C23.479 11.3775 23.5832 11.3344 23.6617 11.2559C23.9134 11.0043 24.0826 10.4353 24.0328 10.2564L22.9134 9.13699L22.9125 9.13616L22.9117 9.13524L18.8641 5.08783L18.8633 5.08691L17.7445 3.96822C17.7307 3.96527 17.7051 3.96139 17.6649 3.96139C17.3584 3.96139 16.9182 4.16389 16.744 4.33813C16.6655 4.41668 16.6223 4.52097 16.6223 4.6319C16.6223 4.74293 16.6655 4.84713 16.744 4.92558L18.2127 6.39423L21.6061 9.78757L23.0744 11.2559C23.1528 11.3343 23.2571 11.3775 23.3681 11.3775ZM23.402 7.66778L25.9797 5.08995C26.3897 4.68008 26.6156 4.135 26.6156 3.55512C26.6156 2.97534 26.3897 2.43016 25.9797 2.0202C25.5698 1.61014 25.0246 1.3843 24.4448 1.3843C23.865 1.3843 23.3199 1.61014 22.9099 2.02011L20.332 4.59794L23.402 7.66778Z" fill="black"/>
</svg>
